# xmcd
#
# Track frame offsets: 
#        150
#        20057
#        37790
#        51897
#
# Disc length: 969 seconds
#
# Revision: 0
# Processed by: cddbd v1.4PL0 Copyright (c) Steve Scherf et al.
# Submitted via: ExactAudioCopy v0.95a3
#
DISCID=2903c704
DTITLE=One, The - Cultured Palate ep
DYEAR=1994
DGENRE=Rock
TTITLE0=Baby don't talk
TTITLE1=Twilight world
TTITLE2=Made to fall apart
TTITLE3=A company of strangers
EXTD=
EXTT0=
EXTT1=
EXTT2=
EXTT3=
PLAYORDER=
